<?xml version="1.0" encoding="UTF-8" standalone="no"?>
<!-- Generator: Adobe Illustrator 18.0.0, SVG Export Plug-In . SVG Version: 6.00 Build 0)  -->

<svg
   xmlns:dc="http://purl.org/dc/elements/1.1/"
   xmlns:cc="http://creativecommons.org/ns#"
   xmlns:rdf="http://www.w3.org/1999/02/22-rdf-syntax-ns#"
   xmlns:svg="http://www.w3.org/2000/svg"
   xmlns="http://www.w3.org/2000/svg"
   xmlns:sodipodi="http://sodipodi.sourceforge.net/DTD/sodipodi-0.dtd"
   xmlns:inkscape="http://www.inkscape.org/namespaces/inkscape"
   version="1.1"
   id="Capa_1"
   x="0px"
   y="0px"
   viewBox="0 0 297 297"
   style="enable-background:new 0 0 297 297;"
   xml:space="preserve"
   sodipodi:docname="welds.svg"
   inkscape:version="0.92.5 (2060ec1f9f, 2020-04-08)"><metadata
   id="metadata63"><rdf:RDF><cc:Work
       rdf:about=""><dc:format>image/svg+xml</dc:format><dc:type
         rdf:resource="http://purl.org/dc/dcmitype/StillImage" /></cc:Work></rdf:RDF></metadata><defs
   id="defs61">
	
	
</defs><sodipodi:namedview
   pagecolor="#ffffff"
   bordercolor="#666666"
   borderopacity="1"
   objecttolerance="10"
   gridtolerance="10"
   guidetolerance="10"
   inkscape:pageopacity="0"
   inkscape:pageshadow="2"
   inkscape:window-width="1230"
   inkscape:window-height="1356"
   id="namedview59"
   showgrid="false"
   inkscape:zoom="0.79461279"
   inkscape:cx="148.5"
   inkscape:cy="148.5"
   inkscape:window-x="3220"
   inkscape:window-y="54"
   inkscape:window-maximized="0"
   inkscape:current-layer="Capa_1" />
<path
   inkscape:connector-curvature="0"
   id="path2"
   d="m 232.93402,194.75661 c 0,-2.21097 0.91736,-4.38088 2.5364,-5.94463 1.61023,-1.56374 3.83498,-2.46317 6.11254,-2.46317 2.28638,0 4.51992,0.90028 6.13016,2.46317 1.61111,1.5646 2.53728,3.73366 2.53728,5.94463 0,2.2195 -0.92705,4.38087 -2.53728,5.94461 -1.61024,1.56374 -3.84378,2.46318 -6.13016,2.46318 -2.27668,0 -4.50231,-0.90029 -6.11254,-2.46318 -1.61904,-1.55604 -2.5364,-3.72511 -2.5364,-5.94461 z"
   style="fill:#ffe6d5;stroke-width:0.86758757" /><path
   inkscape:connector-curvature="0"
   id="path4"
   d="m 198.11989,228.56646 c 2.27669,0 4.51112,0.90029 6.12047,2.46317 1.61904,1.56461 2.53728,3.73367 2.53728,5.94462 0,2.21096 -0.91824,4.38088 -2.53728,5.94462 -1.61023,1.56375 -3.83498,2.46317 -6.12047,2.46317 -2.27756,0 -4.512,-0.90028 -6.12134,-2.46317 -1.61112,-1.56459 -2.53641,-3.73366 -2.53641,-5.94462 0,-2.21095 0.92617,-4.38088 2.53641,-5.94462 1.60934,-1.56374 3.84289,-2.46317 6.12134,-2.46317 z"
   style="fill:#ffe6d5;stroke-width:0.86758757" /><path
   inkscape:connector-curvature="0"
   id="path6"
   d="m 127.407,238.37897 c 2.27758,0 4.51112,0.89174 6.12135,2.46403 1.61903,1.56374 2.5364,3.72426 2.5364,5.94377 0,2.21095 -0.91737,4.37232 -2.5364,5.94461 -1.61111,1.5646 -3.84377,2.46318 -6.12135,2.46318 -2.27668,0 -4.51111,-0.89944 -6.12046,-2.46318 -1.61111,-1.57229 -2.53728,-3.73366 -2.53728,-5.94461 0,-2.21951 0.92705,-4.38857 2.53728,-5.94377 1.60935,-1.57229 3.8429,-2.46403 6.12046,-2.46403 z"
   style="fill:#ffe6d5;stroke-width:0.86758757" /><path
   inkscape:connector-curvature="0"
   id="path8"
   d="m 86.998893,179.51246 c 2.27668,0 4.5111,0.90029 6.13015,2.46317 1.6111,1.5646 2.52847,3.73367 2.52847,5.94462 0,2.21095 -0.91737,4.38088 -2.52847,5.94462 -1.61905,1.56374 -3.85347,2.46317 -6.13015,2.46317 -2.2767,0 -4.51112,-0.90029 -6.12048,-2.46317 -1.61111,-1.5646 -2.53727,-3.73367 -2.53727,-5.94462 0,-2.21095 0.92704,-4.38088 2.53727,-5.94462 1.60936,-1.56288 3.84378,-2.46317 6.12048,-2.46317 z"
   style="fill:#ffe6d5;stroke-width:0.86758757" /><path
   inkscape:connector-curvature="0"
   id="path10"
   d="m 188.02359,98.22944 c -2.28637,0 -4.51993,-0.90028 -6.12136,-2.46317 -1.61902,-1.5646 -2.53639,-3.73366 -2.53639,-5.94462 0,-2.21951 0.91737,-4.380875 2.53639,-5.944618 1.60143,-1.563743 3.83499,-2.463174 6.12136,-2.463174 2.27668,0 4.50143,0.900285 6.12046,2.463174 1.61112,1.564598 2.53728,3.733658 2.53728,5.944618 0,2.21096 -0.92705,4.38088 -2.53728,5.94462 -1.60935,1.56374 -3.8429,2.46317 -6.12046,2.46317 z"
   style="fill:#ffe6d5;stroke-width:0.86758757" /><path
   inkscape:connector-curvature="0"
   id="path12"
   d="m 248.63136,137.47093 c -2.27668,0 -4.51111,-0.90029 -6.12134,-2.46318 -1.61112,-1.56459 -2.53641,-3.73366 -2.53641,-5.94461 0,-2.21951 0.92617,-4.38088 2.53641,-5.94462 1.6111,-1.56374 3.84466,-2.46317 6.12134,-2.46317 2.2767,0 4.51112,0.90028 6.12047,2.46317 1.61112,1.5646 2.53728,3.73366 2.53728,5.94462 0,2.21095 -0.92704,4.37233 -2.53728,5.94461 -1.60935,1.56375 -3.8429,2.46318 -6.12047,2.46318 z"
   style="fill:#ffe6d5;stroke-width:0.86758757" /><path
   inkscape:connector-curvature="0"
   id="path14"
   d="m 180.18615,177.49277 2.47824,6.03699 c 0.53579,1.30456 0.0179,1.8258 -1.2907,1.30158 l -6.41482,-2.5709 c -1.02372,-0.40947 -2.37827,-1.40084 -3.61791,-2.64485 L 89.120793,97.094967 C 88.129137,96.099614 87.304013,95.03462 86.826421,94.133658 86.348835,93.232695 86.258385,92.57031 86.574707,92.29179 l 3.937096,-3.466053 c 0.32972,-0.289805 1.046158,-0.132494 1.938682,0.356528 0.89251,0.48902 1.960407,1.309364 2.993049,2.345621 l 82.219646,82.520584 c 1.18631,1.19066 2.12261,2.46877 2.52297,3.4443 z"
   style="fill:#ffe6d5;stroke-width:0.29476658" /><path
   inkscape:connector-curvature="0"
   id="path16"
   d="m 191.99943,191.78643 c 1.69122,-1.64154 3.90628,-2.46232 6.12222,-2.46232 2.21595,0 4.431,0.82078 6.12223,2.46232 l 30.30565,29.4307 c 3.38158,3.28394 3.38158,8.60785 0,11.89179 -3.38245,3.2831 -8.86288,3.2831 -12.24534,0 l -30.30564,-29.43068 c -3.37982,-3.28395 -3.37982,-8.60786 8.6e-4,-11.89181 z"
   style="fill:#ff7f2a;stroke-width:0.86758757" /><path
   inkscape:connector-curvature="0"
   id="path18"
   d="m 131.38812,191.78643 c 1.69123,-1.64154 3.9063,-2.46232 6.12224,-2.46232 2.21594,0 4.431,0.82078 6.12223,2.46232 3.38157,3.28395 3.38157,8.60786 0,11.89181 l -30.30566,29.43068 c -3.38245,3.2831 -8.86288,3.2831 -12.24533,0 -3.381577,-3.28394 -3.381577,-8.60785 0,-11.89179 z"
   style="fill:#ff7f2a;stroke-width:0.86758757" /><path
   inkscape:connector-curvature="0"
   id="path20"
   d="m 164.6017,210.87539 c 4.78139,0 8.65863,3.76443 8.65863,8.40864 v 41.62089 c 0,4.64334 -3.87636,8.40864 -8.65863,8.40864 -4.7814,0 -8.65863,-3.76444 -8.65863,-8.40864 v -41.62174 c 8.7e-4,-4.64336 3.87723,-8.40779 8.65863,-8.40779 z"
   style="fill:#ff7f2a;stroke-width:0.86758757" /><path
   inkscape:connector-curvature="0"
   id="path22"
   d="m 204.24476,144.81685 c -3.38246,3.28309 -8.86288,3.28309 -12.24533,0 -3.38158,-3.28395 -3.38158,-8.60786 0,-11.8918 l 30.30564,-29.43069 c 1.69123,-1.64155 3.90629,-2.46232 6.12224,-2.46232 2.21593,0 4.43099,0.82077 6.12222,2.46232 3.38158,3.28395 3.38158,8.60785 0,11.8918 z"
   style="fill:#ff7f2a;stroke-width:0.86758757" /><path
   inkscape:connector-curvature="0"
   id="path24"
   d="m 263.17188,173.58921 h -42.85825 c -4.78139,0 -8.65863,-3.76444 -8.65863,-8.40864 0,-4.64421 3.87635,-8.40865 8.65863,-8.40865 h 42.85825 c 4.78139,0 8.65863,3.76444 8.65863,8.40865 0,4.6442 -3.87636,8.40864 -8.65863,8.40864 z"
   style="fill:#ff7f2a;stroke-width:0.86758757" />
<g
   id="g28">
</g>
<g
   id="g30">
</g>
<g
   id="g32">
</g>
<g
   id="g34">
</g>
<g
   id="g36">
</g>
<g
   id="g38">
</g>
<g
   id="g40">
</g>
<g
   id="g42">
</g>
<g
   id="g44">
</g>
<g
   id="g46">
</g>
<g
   id="g48">
</g>
<g
   id="g50">
</g>
<g
   id="g52">
</g>
<g
   id="g54">
</g>
<g
   id="g56">
</g>
</svg>