<?xml version="1.0" encoding="UTF-8" standalone="no"?>
<!-- Generator: Adobe Illustrator 18.0.0, SVG Export Plug-In . SVG Version: 6.00 Build 0)  -->

<svg
   xmlns:dc="http://purl.org/dc/elements/1.1/"
   xmlns:cc="http://creativecommons.org/ns#"
   xmlns:rdf="http://www.w3.org/1999/02/22-rdf-syntax-ns#"
   xmlns:svg="http://www.w3.org/2000/svg"
   xmlns="http://www.w3.org/2000/svg"
   xmlns:sodipodi="http://sodipodi.sourceforge.net/DTD/sodipodi-0.dtd"
   xmlns:inkscape="http://www.inkscape.org/namespaces/inkscape"
   version="1.1"
   id="Capa_1"
   x="0px"
   y="0px"
   viewBox="0 0 297 297"
   style="enable-background:new 0 0 297 297;"
   xml:space="preserve"
   sodipodi:docname="welds.svg"
   inkscape:version="0.92.5 (2060ec1f9f, 2020-04-08)"><metadata
   id="metadata63"><rdf:RDF><cc:Work
       rdf:about=""><dc:format>image/svg+xml</dc:format><dc:type
         rdf:resource="http://purl.org/dc/dcmitype/StillImage" /></cc:Work></rdf:RDF></metadata><defs
   id="defs61">
	
	
	
	
	
	
	
	
	
	
	
	
</defs><sodipodi:namedview
   pagecolor="#ffffff"
   bordercolor="#666666"
   borderopacity="1"
   objecttolerance="10"
   gridtolerance="10"
   guidetolerance="10"
   inkscape:pageopacity="0"
   inkscape:pageshadow="2"
   inkscape:window-width="2510"
   inkscape:window-height="1356"
   id="namedview59"
   showgrid="false"
   inkscape:zoom="0.79461279"
   inkscape:cx="148.5"
   inkscape:cy="148.5"
   inkscape:window-x="1940"
   inkscape:window-y="54"
   inkscape:window-maximized="0"
   inkscape:current-layer="Capa_1" />
<path
   inkscape:connector-curvature="0"
   id="path2"
   d="m 48.840489,209.27655 c 0,-2.56409 -1.03317,-5.08058 -2.856585,-6.89408 -1.8135,-1.8135 -4.319085,-2.85658 -6.884161,-2.85658 -2.574991,0 -5.090491,1.04407 -6.903991,2.85658 -1.814492,1.81449 -2.857577,4.32999 -2.857577,6.89408 0,2.574 1.044077,5.08057 2.857577,6.89407 1.8135,1.8135 4.329,2.85659 6.903991,2.85659 2.564085,0 5.070661,-1.04408 6.884161,-2.85659 1.823415,-1.80457 2.856585,-4.32007 2.856585,-6.89407 z"
   style="fill:#803300;stroke-width:0.99152541" /><path
   inkscape:connector-curvature="0"
   id="path4"
   d="m 88.04937,248.48642 c -2.564085,0 -5.080576,1.04408 -6.893085,2.85658 -1.823415,1.8145 -2.857576,4.33 -2.857576,6.89408 0,2.56409 1.034161,5.08058 2.857576,6.89408 1.8135,1.8135 4.319085,2.85658 6.893085,2.85658 2.565076,0 5.081568,-1.04407 6.894076,-2.85658 1.814492,-1.81449 2.856585,-4.32999 2.856585,-6.89408 0,-2.56408 -1.043085,-5.08058 -2.856585,-6.89408 -1.812508,-1.8135 -4.328008,-2.85658 -6.894076,-2.85658 z"
   style="fill:#803300;stroke-width:0.99152541" /><path
   inkscape:connector-curvature="0"
   id="path6"
   d="m 167.68869,259.86616 c -2.56508,0 -5.08058,1.03416 -6.89408,2.85757 -1.82341,1.8135 -2.85658,4.31909 -2.85658,6.89309 0,2.56408 1.03317,5.07066 2.85658,6.89407 1.81449,1.8145 4.329,2.85659 6.89408,2.85659 2.56408,0 5.08057,-1.04309 6.89308,-2.85659 1.81449,-1.82341 2.85758,-4.32999 2.85758,-6.89407 0,-2.574 -1.04408,-5.0895 -2.85758,-6.89309 -1.81251,-1.82341 -4.32801,-2.85757 -6.89308,-2.85757 z"
   style="fill:#803300;stroke-width:0.99152541" /><path
   inkscape:connector-curvature="0"
   id="path8"
   d="m 213.19772,191.59765 c -2.56408,0 -5.08057,1.04408 -6.90399,2.85658 -1.81449,1.8145 -2.84766,4.33 -2.84766,6.89408 0,2.56408 1.03317,5.08058 2.84766,6.89408 1.82342,1.8135 4.33991,2.85658 6.90399,2.85658 2.56409,0 5.08058,-1.04408 6.89309,-2.85658 1.81449,-1.8145 2.85757,-4.33 2.85757,-6.89408 0,-2.56408 -1.04407,-5.08058 -2.85757,-6.89408 -1.81251,-1.8125 -4.329,-2.85658 -6.89309,-2.85658 z"
   style="fill:#803300;stroke-width:0.99152541" /><path
   inkscape:connector-curvature="0"
   id="path10"
   d="m 99.420184,97.332336 c 2.574986,0 5.090486,-1.044076 6.894076,-2.856585 1.82341,-1.814491 2.85658,-4.329991 2.85658,-6.894076 0,-2.574 -1.03317,-5.080576 -2.85658,-6.894076 -1.80359,-1.8135 -4.31909,-2.856585 -6.894076,-2.856585 -2.564085,0 -5.06967,1.044076 -6.893085,2.856585 -1.814492,1.814491 -2.857576,4.329991 -2.857576,6.894076 0,2.564085 1.044076,5.080576 2.857576,6.894076 1.812508,1.8135 4.328008,2.856585 6.893085,2.856585 z"
   style="fill:#803300;stroke-width:0.99152541" /><path
   inkscape:connector-curvature="0"
   id="path12"
   d="m 31.161591,142.84137 c 2.564084,0 5.080576,-1.04408 6.894076,-2.85659 1.814491,-1.81449 2.856585,-4.32999 2.856585,-6.89407 0,-2.574 -1.043085,-5.08058 -2.856585,-6.89408 -1.814492,-1.8135 -4.329992,-2.85658 -6.894076,-2.85658 -2.564085,0 -5.080577,1.04407 -6.893085,2.85658 -1.814492,1.81449 -2.857576,4.32999 -2.857576,6.89408 0,2.56408 1.044076,5.07066 2.857576,6.89407 1.812508,1.8135 4.328008,2.85659 6.893085,2.85659 z"
   style="fill:#803300;stroke-width:0.99152541" /><path
   inkscape:connector-curvature="0"
   id="path14"
   d="m 110.33907,183.90821 -4.72055,11.28244 c -1.02056,2.43809 -0.0343,3.41223 2.45854,2.43251 l 12.21892,-4.80471 c 1.94996,-0.76526 4.53011,-2.61802 6.89137,-4.94293 L 283.80003,33.653772 c 1.8889,-1.860203 3.4606,-3.850556 4.37031,-5.53435 0.90971,-1.683798 1.082,-2.921721 0.47947,-3.442245 l -7.49937,-6.477661 c -0.62805,-0.541613 -1.99272,-0.247617 -3.69279,0.666309 -1.70005,0.913925 -3.73418,2.447054 -5.70115,4.383701 L 115.14482,177.47118 c -2.25968,2.22522 -4.04314,4.61387 -4.80575,6.43703 z"
   style="fill:#000000;stroke-width:0.55615276" /><path
   inkscape:connector-curvature="0"
   id="path16"
   d="m 94.942455,205.83199 c -1.904721,-1.90373 -4.399399,-2.8556 -6.895068,-2.8556 -2.495669,0 -4.990347,0.95187 -6.895068,2.8556 L 47.02104,239.96327 c -3.808449,3.80845 -3.808449,9.98268 0,13.79112 3.80944,3.80746 9.981686,3.80746 13.791127,0 l 34.131279,-34.13127 c 3.806466,-3.80845 3.806466,-9.98268 -9.91e-4,-13.79113 z"
   style="fill:#803300;stroke-width:0.99152541" /><path
   inkscape:connector-curvature="0"
   id="path18"
   d="m 163.20501,205.83199 c -1.90472,-1.90373 -4.3994,-2.8556 -6.89507,-2.8556 -2.49567,0 -4.99035,0.95187 -6.89507,2.8556 -3.80844,3.80845 -3.80844,9.98268 0,13.79113 l 34.13128,34.13127 c 3.80944,3.80746 9.98169,3.80746 13.79113,0 3.80845,-3.80844 3.80845,-9.98267 0,-13.79112 z"
   style="fill:#803300;stroke-width:0.99152541" /><path
   inkscape:connector-curvature="0"
   id="path20"
   d="m 125.79872,227.96978 c -5.38497,0 -9.75165,4.36568 -9.75165,9.75165 v 48.26845 c 0,5.38497 4.36569,9.75165 9.75165,9.75165 5.38498,0 9.75165,-4.36569 9.75165,-9.75165 v -48.26944 c -9.9e-4,-5.38498 -4.36667,-9.75066 -9.75165,-9.75066 z"
   style="fill:#803300;stroke-width:0.99152541" /><path
   inkscape:connector-curvature="0"
   id="path22"
   d="m 81.151328,151.36056 c 3.80944,3.80745 9.981686,3.80745 13.791127,0 3.808449,-3.80845 3.808449,-9.98268 0,-13.79113 l -34.13128,-34.13128 c -1.90472,-1.90373 -4.399398,-2.85559 -6.895068,-2.85559 -2.495669,0 -4.990347,0.95186 -6.895067,2.85559 -3.808449,3.80845 -3.808449,9.98268 0,13.79113 z"
   style="fill:#803300;stroke-width:0.99152541" /><path
   inkscape:connector-curvature="0"
   id="path24"
   d="m 14.785557,184.72836 h 48.268449 c 5.384974,0 9.751652,-4.36569 9.751652,-9.75165 0,-5.38597 -4.365686,-9.75165 -9.751652,-9.75165 H 14.785557 c -5.3849751,0 -9.751653,4.36568 -9.751653,9.75165 0,5.38596 4.3656864,9.75165 9.751653,9.75165 z"
   style="fill:#803300;stroke-width:0.99152541" />
<g
   id="g28">
</g>
<g
   id="g30">
</g>
<g
   id="g32">
</g>
<g
   id="g34">
</g>
<g
   id="g36">
</g>
<g
   id="g38">
</g>
<g
   id="g40">
</g>
<g
   id="g42">
</g>
<g
   id="g44">
</g>
<g
   id="g46">
</g>
<g
   id="g48">
</g>
<g
   id="g50">
</g>
<g
   id="g52">
</g>
<g
   id="g54">
</g>
<g
   id="g56">
</g>
</svg>